<svg xmlns="http://www.w3.org/2000/svg" width="512" height="512"><circle cx="256" cy="256" r="256" data-original="#E09112" fill="#e09112"/><path d="M512 256c0-.877-.024-1.75-.033-2.626L391.344 132.751 225.516 289.013l-108.203 86.511L253.76 511.971c.746.007 1.491.028 2.239.028C397.384 512 512 397.384 512 256z" data-original="#FF5419" class="active-path" data-old_color="#fe4c02" fill="#fe4c02"/><path d="M378.54 384H133.458c-10.869 0-19.68-8.811-19.68-19.682V147.68c0-10.869 8.811-19.68 19.68-19.68H378.54c10.869 0 19.682 8.811 19.682 19.68v216.638c0 10.871-8.811 19.682-19.682 19.682z" data-original="#FFFFFF" fill="#fff"/><path d="M113.778 364.32c0 1.077.122 2.129.31 3.16h141.338V155.44H113.778v208.88z" data-original="#59595B" fill="#59595b"/><path d="M398.222 147.682c0-10.869-8.811-19.682-19.682-19.682H133.46c-10.871 0-19.682 8.811-19.682 19.682v20.744h284.444v-20.744z" data-original="#386895" fill="#386895"/><path d="M398.222 147.682c0-10.869-8.811-19.682-19.682-19.682H254.993v40.426h143.229v-20.744z" data-original="#273B7A" fill="#273b7a"/><path d="M113.988 367.049c1.333 9.575 9.528 16.951 19.47 16.951H378.54c9.942 0 18.137-7.378 19.47-16.951H113.988z" data-original="#808183" fill="#808183"/><path d="M254.995 367.049V384h123.547c9.942 0 18.137-7.378 19.47-16.951H254.995z" data-original="#59595B" fill="#59595b"/><path d="M373.226 158.599H138.774a7.328 7.328 0 0 1 0-14.654h234.451a7.328 7.328 0 0 1 7.327 7.327 7.326 7.326 0 0 1-7.326 7.327z" data-original="#D0D1D3" fill="#d0d1d3"/><path d="M373.226 143.946H254.995v14.653h118.231a7.327 7.327 0 0 0 0-14.653z" data-original="#A6A8AA" fill="#a6a8aa"/><path d="M161.135 337.479l17.461.509.284-9.83a34.762 34.762 0 0 0 9.113-3.477l6.758 7.161 12.703-11.985-6.758-7.161a34.71 34.71 0 0 0 4.001-8.894l9.831.286.505-17.46-9.831-.286a34.77 34.77 0 0 0-3.481-9.113l7.161-6.756-11.99-12.705-7.161 6.756a34.721 34.721 0 0 0-8.895-4.003l.284-9.83-17.461-.509-.284 9.83a34.762 34.762 0 0 0-9.113 3.477l-6.758-7.161-12.703 11.985 6.758 7.161a34.71 34.71 0 0 0-4.001 8.894l-9.831-.286-.505 17.46 9.831.286a34.77 34.77 0 0 0 3.481 9.113l-7.161 6.756 11.99 12.705 7.161-6.756a34.79 34.79 0 0 0 8.895 4.003l-.284 9.83zm-7.469-43.903c.279-9.642 8.323-17.23 17.967-16.949 9.644.281 17.236 8.326 16.956 17.968s-8.323 17.23-17.967 16.949c-9.642-.281-17.234-8.324-16.956-17.968z" data-original="#EAA22F" fill="#eaa22f"/><path d="M190.564 236.604l10.476.305.171-5.897a20.789 20.789 0 0 0 5.466-2.086l4.055 4.298 7.623-7.19-4.055-4.298a20.827 20.827 0 0 0 2.4-5.335l5.899.172.303-10.476-5.899-.172a20.883 20.883 0 0 0-2.088-5.467l4.296-4.053-7.194-7.623-4.296 4.053a20.793 20.793 0 0 0-5.337-2.401l.171-5.897-10.476-.305-.171 5.897a20.809 20.809 0 0 0-5.467 2.086l-4.055-4.298-7.623 7.19 4.055 4.296a20.81 20.81 0 0 0-2.4 5.337l-5.899-.172-.303 10.476 5.899.172a20.883 20.883 0 0 0 2.088 5.467l-4.296 4.053 7.194 7.623 4.296-4.053a20.793 20.793 0 0 0 5.337 2.401l-.17 5.897zm-4.482-26.341c.167-5.785 4.994-10.338 10.78-10.169 5.785.169 10.342 4.996 10.174 10.781-.167 5.785-4.994 10.338-10.78 10.169-5.785-.169-10.341-4.996-10.174-10.781z" data-original="#D0D1D3" fill="#d0d1d3"/><path data-original="#FF7F4F" fill="#ff7f4f" d="M273.963 183.734h103.291v56.889H273.963z"/><path data-original="#FFC61B" fill="#ffc61b" d="M273.963 259.155h25.822v85.333h-25.822z"/><path data-original="#EAA22F" fill="#eaa22f" d="M312.699 259.155h64.557v85.333h-64.557z"/></svg>