<svg xmlns="http://www.w3.org/2000/svg" viewBox="0 0 511.999 511.999" width="512" height="512"><path d="M235.454 103.784V443.25H64.871c-15.492 0-28.05-12.558-28.05-28.05V131.822c0-15.481 12.558-28.039 28.05-28.039l170.583.001z" data-original="#666666" fill="#666"/><path data-original="#999999" fill="#999" d="M235.454 103.784v339.465H82.246l95.167-339.465z"/><path data-original="#F94B54" class="active-path" data-old_color="#fe4c02" fill="#fe4c02" d="M36.817 157.295H235.45v231.17H36.817z"/><path data-original="#F98791" fill="#f98791" d="M235.454 157.292v231.17H97.601l64.811-231.17z"/><path data-original="#9BD7F4" fill="#9bd7f4" d="M475.184 69.676V8.31H235.453v253.431h-83.907l83.907 49.962v191.482h239.731v-399.26z"/><path data-original="#F94B54" class="active-path" data-old_color="#fe4c02" fill="#fe4c02" d="M235.451 8.31h239.732v62.87H235.451z"/><path data-original="#F2F2F2" fill="#f2f2f2" d="M263.991 337.319h182.65v34.329h-182.65zm0-232.083h182.65v68.12h-182.65z"/><path data-original="#F9C573" fill="#f9c573" d="M332.419 402.621h114.224v68.119H263.994v-68.119h38.171m123.868-194.924h20.61v95.007H263.994v-95.007h130.073"/><circle cx="147.042" cy="417.542" r="8.562" data-original="#000000"/><path d="M207.681 434.944H64.865c-10.746 0-19.488-8.743-19.488-19.488V132.079c0-10.739 8.742-19.476 19.488-19.476h142.816a8.562 8.562 0 0 0 8.562-8.562 8.56 8.56 0 0 0-8.562-8.562H64.865c-20.189 0-36.612 16.419-36.612 36.601v283.377c0 20.189 16.425 36.612 36.612 36.612h142.816a8.562 8.562 0 0 0 8.562-8.562 8.562 8.562 0 0 0-8.562-8.563z" data-original="#000000"/><path d="M209.767 148.977H62.781c-4.73 0-8.562 3.834-8.562 8.562s3.832 8.562 8.562 8.562h146.986a8.562 8.562 0 0 0 0-17.124zm0 231.169H62.781a8.562 8.562 0 0 0-8.562 8.562 8.56 8.56 0 0 0 8.562 8.562h146.986a8.562 8.562 0 0 0 8.562-8.562 8.562 8.562 0 0 0-8.562-8.562z" data-original="#000000"/><circle cx="265.704" cy="40.527" r="8.562" data-original="#000000"/><circle cx="321.073" cy="40.527" r="8.562" data-original="#000000"/><circle cx="293.389" cy="40.527" r="8.562" data-original="#000000"/><path d="M263.994 79.994h182.649a8.562 8.562 0 0 0 8.562-8.562 8.56 8.56 0 0 0-8.562-8.562H263.994a8.562 8.562 0 0 0-8.562 8.562 8.56 8.56 0 0 0 8.562 8.562zm-8.563 291.909a8.56 8.56 0 0 0 8.562 8.562h182.649a8.562 8.562 0 0 0 8.562-8.562v-34.328a8.56 8.56 0 0 0-8.562-8.562H263.994a8.562 8.562 0 0 0-8.562 8.562v34.328zm17.125-25.767h165.525v17.203H272.556v-17.203z" data-original="#000000"/><path d="M475.184 95.614a8.562 8.562 0 0 0-8.562 8.562v390.698H244.015V311.956a8.561 8.561 0 0 0-4.182-7.357l-57.172-34.044h52.79a8.562 8.562 0 0 0 8.562-8.562V225.19a8.56 8.56 0 0 0-8.562-8.562 8.562 8.562 0 0 0-8.562 8.562v28.241h-75.343a8.56 8.56 0 0 0-4.379 15.919l79.724 47.473v186.614a8.56 8.56 0 0 0 8.562 8.562h239.731a8.562 8.562 0 0 0 8.562-8.562v-399.26a8.562 8.562 0 0 0-8.562-8.563zm0-95.614H235.453a8.562 8.562 0 0 0-8.562 8.562v183.521a8.56 8.56 0 0 0 8.562 8.562 8.562 8.562 0 0 0 8.562-8.562V17.125h222.607v52.803c0 4.729 3.832 8.562 8.562 8.562s8.562-3.834 8.562-8.562V8.562A8.562 8.562 0 0 0 475.184 0z" data-original="#000000"/><path d="M255.431 173.61a8.56 8.56 0 0 0 8.562 8.562h182.649a8.562 8.562 0 0 0 8.562-8.562v-68.12a8.56 8.56 0 0 0-8.562-8.562H263.994a8.562 8.562 0 0 0-8.562 8.562v68.12zm17.125-59.558h165.525v50.996H272.556v-50.996zm-17.125 356.94a8.56 8.56 0 0 0 8.562 8.562h182.649a8.562 8.562 0 0 0 8.562-8.562v-68.12a8.56 8.56 0 0 0-8.562-8.562H332.419a8.562 8.562 0 0 0-8.562 8.562 8.56 8.56 0 0 0 8.562 8.562h105.662v50.996H272.556v-50.996h29.611a8.562 8.562 0 0 0 8.562-8.562 8.56 8.56 0 0 0-8.562-8.562h-38.173a8.562 8.562 0 0 0-8.562 8.562l-.001 68.12zm0-168.036a8.56 8.56 0 0 0 8.562 8.562h182.649a8.562 8.562 0 0 0 8.562-8.562v-95.008a8.56 8.56 0 0 0-8.562-8.562h-20.61a8.562 8.562 0 0 0-8.562 8.562 8.56 8.56 0 0 0 8.562 8.562h12.048v77.884H272.556V216.51h121.512a8.562 8.562 0 0 0 8.562-8.562 8.56 8.56 0 0 0-8.562-8.562H263.994a8.562 8.562 0 0 0-8.562 8.562v95.008z" data-original="#000000"/></svg>