<svg xmlns="http://www.w3.org/2000/svg" viewBox="0 0 488 488" width="512" height="512"><path data-original="#40C4FF" class="active-path" data-old_color="#3F6262" fill="#406363" d="M124 156h64v64h-64z"/><path d="M188 224h-64c-2.208 0-4-1.792-4-4v-64c0-2.208 1.792-4 4-4h64c2.208 0 4 1.792 4 4v64c0 2.208-1.792 4-4 4zm-60-8h56v-56h-56v56z" data-original="#263238" fill="#263238"/><path data-original="#FFD740" data-old_color="#fe4c02" fill="#fe4c02" d="M228 124h64v64h-64z"/><path d="M292 192h-64c-2.208 0-4-1.792-4-4v-64c0-2.208 1.792-4 4-4h64c2.208 0 4 1.792 4 4v64c0 2.208-1.792 4-4 4zm-60-8h56v-56h-56v56z" data-original="#263238" fill="#263238"/><path data-original="#FFD740" data-old_color="#fe4c02" fill="#fe4c02" d="M368 164h64v64h-64z"/><path d="M432 232h-64c-2.208 0-4-1.792-4-4v-64c0-2.208 1.792-4 4-4h64c2.208 0 4 1.792 4 4v64c0 2.208-1.792 4-4 4zm-60-8h56v-56h-56v56z" data-original="#263238" fill="#263238"/><path data-original="#FFD740" data-old_color="#fe4c02" fill="#fe4c02" d="M236 340h64v64h-64z"/><path d="M300 408h-64c-2.208 0-4-1.792-4-4v-64c0-2.208 1.792-4 4-4h64c2.208 0 4 1.792 4 4v64c0 2.208-1.792 4-4 4zm-60-8h56v-56h-56v56zm-12-80h-64c-2.208 0-4-1.792-4-4v-64c0-2.208 1.792-4 4-4h64c2.208 0 4 1.792 4 4v64c0 2.208-1.792 4-4 4zm-60-8h56v-56h-56v56z" data-original="#263238" fill="#263238"/><path data-original="#FF5252" data-old_color="#5FBB62" fill="#5fba62" d="M268 220h64v64h-64z"/><path d="M332 288h-64c-2.208 0-4-1.792-4-4v-64c0-2.208 1.792-4 4-4h64c2.208 0 4 1.792 4 4v64c0 2.208-1.792 4-4 4zm-60-8h56v-56h-56v56z" data-original="#263238" fill="#263238"/><path data-original="#40C4FF" class="active-path" data-old_color="#3F6262" fill="#406363" d="M336 300h64v64h-64z"/><g fill="#263238"><path d="M400 368h-64c-2.208 0-4-1.792-4-4v-64c0-2.208 1.792-4 4-4h64c2.208 0 4 1.792 4 4v64c0 2.208-1.792 4-4 4zm-60-8h56v-56h-56v56zM64 421.504h-4c-13.232 0-24-10.768-24-24v-344c0-13.232 10.768-24 24-24h248c13.232 0 24 10.768 24 24v4c0 2.208-1.792 4-4 4s-4-1.792-4-4v-4c0-8.824-7.176-16-16-16H60c-8.824 0-16 7.176-16 16v344c0 8.824 7.176 16 16 16h4c2.208 0 4 1.792 4 4s-1.792 4-4 4z" data-original="#263238"/><path d="M348 461.504H100c-13.232 0-24-10.768-24-24v-344c0-13.232 10.768-24 24-24h248c13.232 0 24 10.768 24 24v56c0 2.208-1.792 4-4 4s-4-1.792-4-4v-56c0-8.824-7.176-16-16-16H100c-8.824 0-16 7.176-16 16v344c0 8.824 7.176 16 16 16h248c8.824 0 16-7.176 16-16v-56c0-2.208 1.792-4 4-4s4 1.792 4 4v56c0 13.232-10.768 24-24 24z" data-original="#263238"/><path d="M368 288c-2.208 0-4-1.792-4-4v-40c0-2.208 1.792-4 4-4s4 1.792 4 4v40c0 2.208-1.792 4-4 4zM128 488h-16c-2.208 0-4-1.792-4-4s1.792-4 4-4h16c2.208 0 4 1.792 4 4s-1.792 4-4 4zm176 0H144c-2.208 0-4-1.792-4-4s1.792-4 4-4h160c2.208 0 4 1.792 4 4s-1.792 4-4 4zm88-464h-32c-2.208 0-4-1.792-4-4s1.792-4 4-4h32c2.208 0 4 1.792 4 4s-1.792 4-4 4z" data-original="#263238"/><path d="M376 40c-2.208 0-4-1.792-4-4V4c0-2.208 1.792-4 4-4s4 1.792 4 4v32c0 2.208-1.792 4-4 4zm72 36h-32c-2.208 0-4-1.792-4-4s1.792-4 4-4h32c2.208 0 4 1.792 4 4s-1.792 4-4 4z" data-original="#263238"/><path d="M432 92c-2.208 0-4-1.792-4-4V56c0-2.208 1.792-4 4-4s4 1.792 4 4v32c0 2.208-1.792 4-4 4z" data-original="#263238"/></g></svg>