<svg xmlns="http://www.w3.org/2000/svg" viewBox="0 0 504.15 504.15" width="512" height="512"><path d="M170.175 224.022h-80v-28.2c-19.848-13.304-32-35.808-32-59.8 0-39.704 32.296-72 72-72s72 32.296 72 72c0 24-12.152 46.496-32 59.808v28.192z" data-original="#F9BA48" class="active-path" data-old_color="#fe4c02" fill="#fe4c02"/><path d="M178.175 252.022c0-2.52-.52-4.904-1.368-7.12 5.608-3.544 9.368-9.76 9.368-16.88 0-11.032-8.968-20-20-20h-28V158.55c9.288-3.312 16-12.112 16-22.528 0-13.232-10.768-24-24-24s-24 10.768-24 24c0 10.416 6.712 19.216 16 22.528v49.472h-28c-11.032 0-20 8.968-20 20 0 7.12 3.76 13.328 9.368 16.88-.848 2.224-1.368 4.608-1.368 7.12 0 6.456 3.12 12.136 7.872 15.8V434.15l40 70 40-70V268.022c4.904-3.648 8.128-9.432 8.128-16zm-48-124c4.416 0 8 3.584 8 8s-3.584 8-8 8-8-3.584-8-8 3.584-8 8-8zm23.872 296h-16v-152h16v152zm-48 0v-152h16v152h-16zm-3.872-168c-2.2 0-4-1.8-4-4s1.8-4 4-4h56c2.2 0 4 1.8 4 4s-1.8 4-4 4h-56zm-8-32h72c2.2 0 4 1.8 4 4s-1.8 4-4 4h-72c-2.2 0-4-1.8-4-4s1.792-4 4-4zm17.656 216h36.432l-18.216 31.872-18.216-31.872zM216.215 56.494c16.712 20.064 25.832 45.072 25.832 71.504 0 29.912-11.648 58.04-32.808 79.192l11.312 11.312c24.184-24.176 37.496-56.312 37.496-90.504 0-29.208-9.792-56.88-28.032-79.72l14.744-2.952-3.144-15.688-31.76 6.36-18.792 31.312 13.72 8.232 11.432-19.048z" data-original="#333333" fill="#333"/><path d="M43.871 199.502c-16.704-20.064-25.824-45.072-25.824-71.504 0-29.92 11.648-58.04 32.808-79.192 31.648-31.664 79.032-41.4 120.648-24.848l5.92-14.856c-47.608-18.936-101.704-7.784-137.88 28.4-24.184 24.16-37.496 56.304-37.496 90.496 0 29.264 9.824 56.992 28 79.728l-14.712 2.936 3.144 15.688 31.76-6.352 18.792-31.32-13.72-8.232-11.44 19.056zm403.872 12.688c3.368-21.88 2.808-43.68-1.68-64.832C427.879 61.726 352.335.174 265.911.174c-.776 0-1.552.008-2.328.016l.2 16c79.832-1.024 149.848 55.544 166.616 134.496 4.264 20.064 4.632 40.808 1.104 61.64l-.472 2.784 46.688 83.496-51.808 11.84v97.576h-80v72h-168v16h184v-72h80V323.19l60.192-13.752-54.36-97.248z" data-original="#333333" fill="#333"/></svg>