<svg xmlns="http://www.w3.org/2000/svg" width="512" height="512"><g fill="#f5d0c7"><path d="M34.136 119.467v17.067c0 14.14 11.46 25.6 25.6 25.6h8.533c14.14 0 25.6-11.46 25.6-25.6v-25.6c0-2.603-.401-5.197-1.195-7.68l-24.405 16.213H34.136z" data-original="#F5D0C7"/><path d="M34.136 110.933v8.533H68.27l24.405-16.213a25.476 25.476 0 0 0-24.405-17.92h-8.533c-14.141 0-25.601 11.461-25.601 25.6zM452.27 68.267h-8.533c-18.85 0-34.133 15.283-34.133 34.133V128c0 18.85 15.283 34.133 34.133 34.133h8.533c18.85 0 34.133-15.283 34.133-34.133v-25.6c0-18.85-15.283-34.133-34.133-34.133z" data-original="#F5D0C7"/></g><path d="M426.67 162.133h34.133c18.85 0 34.133 15.283 34.133 34.133v93.867a8.536 8.536 0 0 1-8.533 8.533H426.67a8.536 8.536 0 0 1-8.533-8.533V170.667c-.001-4.711 3.822-8.534 8.533-8.534z" data-original="#00448F" class="active-path" data-old_color="#fe4c02" fill="#fe4c02"/><path d="M469.336 512h34.134a8.526 8.526 0 0 0 8.525-8.542 8.45 8.45 0 0 0-.435-2.688l-33.442-100.326 16.674-91.716-16.777-3.055-17.067 93.867a8.329 8.329 0 0 0 .299 4.267l30.379 91.127h-22.289V512zm-59.733 0h34.133a8.526 8.526 0 0 0 8.525-8.542 8.45 8.45 0 0 0-.435-2.688l-33.442-100.326 16.674-91.716-16.777-3.055-17.067 93.867a8.329 8.329 0 0 0 .299 4.267l30.379 91.127h-22.289V512z" data-original="#002874" data-old_color="#002874" fill="#263238"/><path d="M447.824 203.554l8.892-14.575-79.599-48.58-64-61.235a7.504 7.504 0 0 0-1.152-.93l-25.6-17.067-9.472 14.199 24.977 16.649 64.145 61.355c.444.418.93.794 1.451 1.118l80.358 49.066z" data-original="#62BEFF" data-old_color="#62BEFF" fill="#263238"/><path d="M290.136 119.467a51.226 51.226 0 0 0 36.207-14.925c.307-.299.589-.614.853-.947 19.541-20.48 18.782-52.932-1.698-72.474s-52.932-18.782-72.474 1.698-18.782 52.932 1.698 72.474a51.26 51.26 0 0 0 35.414 14.174zm23.817-26.684c-13.611 12.535-34.611 12.373-48.026-.375-13.355-13.346-13.372-34.987-.026-48.341 13.346-13.355 34.987-13.372 48.341-.026a34.128 34.128 0 0 1 10.027 24.226 33.687 33.687 0 0 1-9.737 23.893c-.178.154-.383.393-.579.623z" data-original="#FFCB5A" data-old_color="#53636B" fill="#406363"/><path data-original="#FFCB5A" data-old_color="#53636B" fill="#406363" d="M298.67 110.933h-17.067v25.6h17.067zM298.67 0h-17.067v25.6h17.067zm-62.86 110.525l12.068 12.069 18.09-18.09-12.069-12.068zm78.499-78.483l12.068 12.068 18.09-18.09-12.068-12.068zM247.47 59.733h-25.6V76.8h25.6zm110.933 0h-25.6V76.8h25.6zM235.805 26.006l18.09 18.09 12.067-12.068-18.09-18.09zm78.507 78.493l18.09 18.09 12.068-12.069-18.09-18.09z"/><path d="M59.736 76.8h8.533c18.842.026 34.108 15.292 34.133 34.133v25.6c0 18.85-15.283 34.133-34.133 34.133h-8.533c-18.85 0-34.133-15.283-34.133-34.133v-25.6c0-18.85 15.283-34.133 34.133-34.133zm-17.067 59.733c0 9.429 7.637 17.067 17.067 17.067h8.533c9.429 0 17.067-7.637 17.067-17.067v-25.6c0-1.741-.264-3.465-.785-5.12v-.077a16.915 16.915 0 0 0-16.282-11.87h-8.533c-9.429 0-17.067 7.637-17.067 17.067v25.6z" data-original="#F5D0C7" fill="#f5d0c7"/><path d="M51.203 170.667h34.133a8.536 8.536 0 0 1 8.533 8.533v119.467a8.536 8.536 0 0 1-8.533 8.533H25.603a8.536 8.536 0 0 1-8.533-8.533V204.8c-.001-18.85 15.283-34.133 34.133-34.133z" data-original="#00448F" class="active-path" data-old_color="#fe4c02" fill="#fe4c02"/><path d="M8.536 512h34.133v-17.067H20.38l30.379-91.17a8.354 8.354 0 0 0 .273-4.369l-17.067-85.333-16.725 3.345 16.623 83.115L.446 500.771c-1.493 4.471.93 9.301 5.402 10.795a8.518 8.518 0 0 0 2.688.434zm59.734 0h34.133v-17.067H80.114l30.379-91.17a8.354 8.354 0 0 0 .273-4.369l-17.067-85.333-16.725 3.345 16.623 83.115-33.417 100.25c-1.493 4.471.93 9.301 5.402 10.795.87.289 1.774.434 2.688.434z" data-original="#002874" data-old_color="#002874" fill="#263238"/><path d="M128.003 281.6a8.459 8.459 0 0 0 4.139-1.075l74.871-41.591h23.39v-17.067h-25.6a8.459 8.459 0 0 0-4.139 1.075l-71.518 39.723-72.269-64.239-11.349 12.749 76.8 68.267a8.54 8.54 0 0 0 5.675 2.158z" data-original="#62BEFF" data-old_color="#62BEFF" fill="#263238"/><path d="M221.87 221.867c28.203-.068 51.012-22.989 50.944-51.2-.068-28.203-22.989-51.012-51.2-50.944-28.203.068-51.012 22.989-50.944 51.2a51.08 51.08 0 0 0 14.925 35.951 51.21 51.21 0 0 0 36.275 14.993zm0-85.334c18.773.077 33.937 15.351 33.86 34.133s-15.351 33.937-34.133 33.86c-18.782-.077-33.937-15.351-33.86-34.133a33.966 33.966 0 0 1 9.993-23.936 34.259 34.259 0 0 1 24.14-9.924z" data-original="#FFCB5A" data-old_color="#53636B" fill="#406363"/><path d="M127.474 210.321l15.735-6.613a84.808 84.808 0 0 1-6.673-33.041h-17.067a101.626 101.626 0 0 0 8.005 39.654zm21.231-83.541a85.93 85.93 0 0 1 46.882-37.342l-5.282-16.213a103.043 103.043 0 0 0-56.201 44.74l14.601 8.815zM302.578 233.6a101.394 101.394 0 0 0 21.692-62.933h-17.067a84.497 84.497 0 0 1-18.074 52.437l13.449 10.496zm-80.708 39.467a104.505 104.505 0 0 0 25.395-3.157l-4.19-16.555A86.235 86.235 0 0 1 221.87 256v17.067z" data-original="#F5B05C" data-old_color="#FFF700" fill="#f5b05c"/><path data-original="#FFCB5A" data-old_color="#53636B" fill="#406363" d="M230.403 213.333h-17.067v25.6h17.067zm0-110.933h-17.067V128h17.067zm15.643 104.508l18.09 18.09 12.068-12.068-18.09-18.09zm-78.5-78.499l18.09 18.09 12.067-12.068-18.09-18.09zm122.59 33.724h-25.6V179.2h25.6zm-110.933 0h-25.6V179.2h25.6zm66.839-27.713l12.068 12.068 18.09-18.09-12.069-12.068zm-78.485 78.507l12.068 12.068 18.09-18.09-12.068-12.068z"/></svg>