<svg xmlns="http://www.w3.org/2000/svg" width="183.46" height="183.46"><path d="M91.73 0C41.06 0 0 41.06 0 91.73c0 50.663 41.06 91.73 91.73 91.73 50.663 0 91.73-41.067 91.73-91.73C183.46 41.06 142.393 0 91.73 0zm-2.218 6.21c.736-.018 1.477 0 2.218 0 47.387 0 85.826 38.257 85.826 85.52s-38.439 85.621-85.826 85.621c-47.393 0-85.792-38.358-85.792-85.621 0-46.524 37.204-84.349 83.574-85.52zm-12.763 5.154V40.78h20.85s9.59.475 9.59-9.316c0 0-.096-4.42-3.788-6.074 0 0 3.174-1.453 3.174-6.177 0 0-.409-7.85-9.112-7.85H76.75zm6.21 6.689h13.958s3.14-.247 3.14 2.388c0 2.736-3.14 2.287-3.14 2.287l-13.957.068v-4.744zm0 11.159h14.163s3.276-.353 3.276 2.525c0 2.884-3.276 2.525-3.276 2.525H82.96v-5.05zm4.505 14.776L73.44 72.995h7.2l2.252-4.675h16.824l2.184 4.675h7.542l-14.23-29.007h-7.747zm3.925 6.28l5.46 11.773H85.963l5.426-11.774zm-79.001 25.73v29.075h20.919s10.408.393 10.408-8.77c0 0 .525-4.495-3.174-6.143 0 0 2.833-.94 2.833-5.665 0 0 .656-8.497-10.067-8.497h-20.92zm46.513 0l-14.776 29.075H51.7l2.048-4.368h17.438l2.048 4.368h7.815L66.136 75.998H58.9zm12.627 0l17.165 18.394v10.681h6.586v-11.09l15.05-17.985h-8.225L91.662 88.454 80.298 75.998h-8.77zm39.756 0v29.007h25.594V98.35h-18.974V93.3h18.974v-6.006h-18.974v-5.017h18.974v-6.279h-25.594zm32.351 0v29.075h6.62V94.392h5.768l8.19 10.681h7.951l-8.292-10.75s9.043-.274 9.043-9.282c.056-1.566-.718-9.043-9.658-9.043h-19.622zM19.076 82.345h14.845s3.108-.213 3.14 2.492c0 2.728-3.14 2.525-3.14 2.525H19.076v-5.017zm131.18 0h13.001s3.077-.163 3.072 2.765c.007 2.921-3.072 2.934-3.072 2.934h-13.001v-5.699zm-87.874.615l5.596 11.568H56.956l5.426-11.568zM19.076 93.368h14.845s3.276-.316 3.276 2.867c0 2.704-3.276 2.525-3.276 2.525H19.076v-5.392zm57.605 14.913v28.939h28.597v-6.28H83.369v-4.88h21.909v-6.347H83.369v-4.812h21.909v-6.62H76.68zm.068 33.58v29.007h6.62v-10.682h7.405l8.259 10.682h7.815l-8.361-10.955s8.156-.778 8.156-9.419c0-2.673-1.081-8.633-8.702-8.633H76.749zm6.62 5.972h13.48s3.344-.05 3.344 3.071c.013 2.922-3.344 3.003-3.344 3.003h-13.48v-6.074z"/></svg>