<?xml version="1.0"?>
<svg xmlns="http://www.w3.org/2000/svg" xmlns:xlink="http://www.w3.org/1999/xlink" version="1.1" id="Layer_1" x="0px" y="0px" viewBox="0 0 512 512" style="enable-background:new 0 0 512 512;" xml:space="preserve" width="512px" height="512px" class=""><g><circle style="fill:#E09112;" cx="256" cy="256" r="256" data-original="#E09112" class=""/><path style="fill:#FE4C02" d="M512,256c0-0.877-0.024-1.75-0.033-2.626L391.344,132.751L225.516,289.013l-108.203,86.511  l136.447,136.447c0.746,0.007,1.491,0.028,2.239,0.028C397.384,512,512,397.384,512,256z" data-original="#FF5419" class="active-path" data-old_color="#fe4c02"/><path style="fill:#FFFFFF;" d="M378.54,384H133.458c-10.869,0-19.68-8.811-19.68-19.682V147.68c0-10.869,8.811-19.68,19.68-19.68  H378.54c10.869,0,19.682,8.811,19.682,19.68v216.638C398.222,375.189,389.411,384,378.54,384z" data-original="#FFFFFF"/><path style="fill:#59595B;" d="M113.778,364.32c0,1.077,0.122,2.129,0.31,3.16h141.338v-212.04H113.778V364.32z" data-original="#59595B"/><path style="fill:#386895;" d="M398.222,147.682c0-10.869-8.811-19.682-19.682-19.682H133.46c-10.871,0-19.682,8.811-19.682,19.682  v20.744h284.444V147.682z" data-original="#386895"/><path style="fill:#273B7A;" d="M398.222,147.682c0-10.869-8.811-19.682-19.682-19.682H254.993v40.426h143.229V147.682z" data-original="#273B7A"/><path style="fill:#808183;" d="M113.988,367.049c1.333,9.575,9.528,16.951,19.47,16.951H378.54c9.942,0,18.137-7.378,19.47-16.951  L113.988,367.049L113.988,367.049z" data-original="#808183"/><path style="fill:#59595B;" d="M254.995,367.049V384h123.547c9.942,0,18.137-7.378,19.47-16.951L254.995,367.049L254.995,367.049z" data-original="#59595B"/><path style="fill:#D0D1D3;" d="M373.226,158.599H138.774c-4.046,0-7.327-3.281-7.327-7.327l0,0c0-4.046,3.281-7.327,7.327-7.327  h234.451c4.046,0,7.327,3.281,7.327,7.327l0,0C380.552,155.319,377.272,158.599,373.226,158.599z" data-original="#D0D1D3"/><path style="fill:#A6A8AA;" d="M373.226,143.946H254.995v14.653h118.231c4.046,0,7.327-3.281,7.327-7.327  S377.272,143.946,373.226,143.946z" data-original="#A6A8AA"/><path style="fill:#EAA22F;" d="M161.135,337.479l17.461,0.509l0.284-9.83c3.227-0.731,6.285-1.917,9.113-3.477l6.758,7.161  l12.703-11.985l-6.758-7.161c1.722-2.731,3.084-5.715,4.001-8.894l9.831,0.286l0.505-17.46l-9.831-0.286  c-0.733-3.227-1.919-6.285-3.481-9.113l7.161-6.756l-11.99-12.705l-7.161,6.756c-2.731-1.722-5.716-3.086-8.895-4.003l0.284-9.83  l-17.461-0.509l-0.284,9.83c-3.227,0.731-6.285,1.917-9.113,3.477l-6.758-7.161l-12.703,11.985l6.758,7.161  c-1.722,2.731-3.084,5.715-4.001,8.894l-9.831-0.286l-0.505,17.46l9.831,0.286c0.733,3.227,1.919,6.285,3.481,9.113l-7.161,6.756  l11.99,12.705l7.161-6.756c2.731,1.722,5.716,3.084,8.895,4.003L161.135,337.479z M153.666,293.576  c0.279-9.642,8.323-17.23,17.967-16.949c9.644,0.281,17.236,8.326,16.956,17.968s-8.323,17.23-17.967,16.949  C160.98,311.263,153.388,303.22,153.666,293.576z" data-original="#EAA22F"/><path style="fill:#D0D1D3;" d="M190.564,236.604l10.476,0.305l0.171-5.897c1.936-0.438,3.772-1.15,5.466-2.086l4.055,4.298  l7.623-7.19l-4.055-4.298c1.033-1.638,1.85-3.429,2.4-5.335l5.899,0.172l0.303-10.476l-5.899-0.172  c-0.44-1.936-1.152-3.772-2.088-5.467l4.296-4.053l-7.194-7.623l-4.296,4.053c-1.639-1.034-3.429-1.851-5.337-2.401l0.171-5.897  l-10.476-0.305l-0.171,5.897c-1.936,0.438-3.772,1.15-5.467,2.086l-4.055-4.298l-7.623,7.19l4.055,4.296  c-1.033,1.638-1.85,3.429-2.4,5.337l-5.899-0.172l-0.303,10.476l5.899,0.172c0.44,1.936,1.152,3.772,2.088,5.467l-4.296,4.053  l7.194,7.623l4.296-4.053c1.639,1.034,3.429,1.851,5.337,2.401L190.564,236.604z M186.082,210.263  c0.167-5.785,4.994-10.338,10.78-10.169c5.785,0.169,10.342,4.996,10.174,10.781c-0.167,5.785-4.994,10.338-10.78,10.169  C190.471,220.875,185.915,216.048,186.082,210.263z" data-original="#D0D1D3"/><rect x="273.963" y="183.734" style="fill:#FF7F4F;" width="103.291" height="56.889" data-original="#FF7F4F"/><rect x="273.963" y="259.155" style="fill:#FFC61B" width="25.822" height="85.333" data-original="#FFC61B" class=""/><rect x="312.699" y="259.155" style="fill:#EAA22F;" width="64.557" height="85.333" data-original="#EAA22F"/></g> </svg>
