<?xml version="1.0"?>
<svg xmlns="http://www.w3.org/2000/svg" xmlns:xlink="http://www.w3.org/1999/xlink" version="1.1" id="Layer_1" x="0px" y="0px" viewBox="0 0 511.999 511.999" style="enable-background:new 0 0 511.999 511.999;" xml:space="preserve" width="512px" height="512px" class=""><g><path style="fill:#666666;" d="M235.454,103.784v339.466H64.871c-15.492,0-28.05-12.558-28.05-28.05V131.822  c0-15.481,12.558-28.039,28.05-28.039C64.871,103.784,235.454,103.784,235.454,103.784z" data-original="#666666"/><polygon style="fill:#999999;" points="235.454,103.784 235.454,443.249 82.246,443.249 177.413,103.784 " data-original="#999999" class=""/><rect x="36.817" y="157.295" style="fill:#FE4C02" width="198.633" height="231.17" data-original="#F94B54" class="active-path" data-old_color="#fe4c02"/><polygon style="fill:#F98791;" points="235.454,157.292 235.454,388.462 97.601,388.462 162.412,157.292 " data-original="#F98791" class=""/><polygon style="fill:#9BD7F4;" points="475.184,69.676 475.184,8.31 235.453,8.31 235.453,191.831 235.453,224.939 235.453,261.741   151.546,261.741 235.453,311.703 235.453,503.185 475.184,503.185 475.184,103.925 " data-original="#9BD7F4" class=""/><rect x="235.451" y="8.31" style="fill:#FE4C02" width="239.732" height="62.87" data-original="#F94B54" class="active-path" data-old_color="#fe4c02"/><g>
	<rect x="263.991" y="337.319" style="fill:#F2F2F2;" width="182.65" height="34.329" data-original="#F2F2F2" class=""/>
	<rect x="263.991" y="105.236" style="fill:#F2F2F2;" width="182.65" height="68.12" data-original="#F2F2F2" class=""/>
</g><g>
	<polyline style="fill:#F9C573" points="332.419,402.621 446.643,402.621 446.643,470.74 263.994,470.74 263.994,402.621    302.165,402.621  " data-original="#F9C573" class=""/>
	<polyline style="fill:#F9C573" points="426.033,207.697 446.643,207.697 446.643,302.704 263.994,302.704 263.994,207.697    394.067,207.697  " data-original="#F9C573" class=""/>
</g><circle cx="147.042" cy="417.542" r="8.562" data-original="#000000" class=""/><path d="M207.681,434.944H64.865c-10.746,0-19.488-8.743-19.488-19.488V132.079c0-10.739,8.742-19.476,19.488-19.476h142.816  c4.73,0,8.562-3.834,8.562-8.562c0-4.729-3.832-8.562-8.562-8.562H64.865c-20.189,0-36.612,16.419-36.612,36.601v283.377  c0,20.189,16.425,36.612,36.612,36.612h142.816c4.73,0,8.562-3.834,8.562-8.562C216.244,438.778,212.41,434.944,207.681,434.944z" data-original="#000000" class=""/><path d="M209.767,148.977H62.781c-4.73,0-8.562,3.834-8.562,8.562s3.832,8.562,8.562,8.562h146.986c4.73,0,8.562-3.834,8.562-8.562  S214.496,148.977,209.767,148.977z" data-original="#000000" class=""/><path d="M209.767,380.146H62.781c-4.73,0-8.562,3.834-8.562,8.562c0,4.729,3.832,8.562,8.562,8.562h146.986  c4.73,0,8.562-3.834,8.562-8.562C218.329,383.979,214.496,380.146,209.767,380.146z" data-original="#000000" class=""/><circle cx="265.704" cy="40.527" r="8.562" data-original="#000000" class=""/><circle cx="321.073" cy="40.527" r="8.562" data-original="#000000" class=""/><circle cx="293.389" cy="40.527" r="8.562" data-original="#000000" class=""/><path d="M263.994,79.994h182.649c4.73,0,8.562-3.834,8.562-8.562c0-4.729-3.832-8.562-8.562-8.562H263.994  c-4.73,0-8.562,3.834-8.562,8.562C255.431,76.161,259.264,79.994,263.994,79.994z" data-original="#000000" class=""/><path d="M255.431,371.903c0,4.729,3.832,8.562,8.562,8.562h182.649c4.73,0,8.562-3.834,8.562-8.562v-34.328  c0-4.729-3.832-8.562-8.562-8.562H263.994c-4.73,0-8.562,3.834-8.562,8.562V371.903z M272.556,346.136h165.525v17.203H272.556  V346.136z" data-original="#000000" class=""/><path d="M475.184,95.614c-4.73,0-8.562,3.834-8.562,8.562v390.698H244.015V311.956c0-3.019-1.589-5.813-4.182-7.357l-57.172-34.044  h52.79c4.73,0,8.562-3.834,8.562-8.562V225.19c0-4.729-3.832-8.562-8.562-8.562c-4.73,0-8.562,3.834-8.562,8.562v28.241h-75.343  c-3.854,0-7.233,2.574-8.255,6.29c-1.022,3.716,0.564,7.657,3.876,9.629l79.724,47.473v186.614c0,4.729,3.832,8.562,8.562,8.562  h239.731c4.73,0,8.562-3.834,8.562-8.562v-399.26C483.746,99.448,479.914,95.614,475.184,95.614z" data-original="#000000" class=""/><path d="M475.184,0H235.453c-4.73,0-8.562,3.834-8.562,8.562v183.521c0,4.729,3.832,8.562,8.562,8.562  c4.73,0,8.562-3.834,8.562-8.562V17.125h222.607v52.803c0,4.729,3.832,8.562,8.562,8.562s8.562-3.834,8.562-8.562V8.562  C483.746,3.834,479.914,0,475.184,0z" data-original="#000000" class=""/><path d="M255.431,173.61c0,4.729,3.832,8.562,8.562,8.562h182.649c4.73,0,8.562-3.834,8.562-8.562v-68.12  c0-4.729-3.832-8.562-8.562-8.562H263.994c-4.73,0-8.562,3.834-8.562,8.562V173.61z M272.556,114.052h165.525v50.996H272.556  V114.052z" data-original="#000000" class=""/><path d="M255.431,470.992c0,4.729,3.832,8.562,8.562,8.562h182.649c4.73,0,8.562-3.834,8.562-8.562v-68.12  c0-4.729-3.832-8.562-8.562-8.562H332.419c-4.73,0-8.562,3.834-8.562,8.562c0,4.729,3.832,8.562,8.562,8.562h105.662v50.996H272.556  v-50.996h29.611c4.73,0,8.562-3.834,8.562-8.562c0-4.729-3.832-8.562-8.562-8.562h-38.173c-4.73,0-8.562,3.834-8.562,8.562  L255.431,470.992L255.431,470.992z" data-original="#000000" class=""/><path d="M255.431,302.956c0,4.729,3.832,8.562,8.562,8.562h182.649c4.73,0,8.562-3.834,8.562-8.562v-95.008  c0-4.729-3.832-8.562-8.562-8.562h-20.61c-4.73,0-8.562,3.834-8.562,8.562c0,4.729,3.832,8.562,8.562,8.562h12.048v77.884H272.556  V216.51h121.512c4.73,0,8.562-3.834,8.562-8.562c0-4.729-3.832-8.562-8.562-8.562H263.994c-4.73,0-8.562,3.834-8.562,8.562V302.956z  " data-original="#000000" class=""/></g> </svg>
