<?xml version="1.0"?>
<svg xmlns="http://www.w3.org/2000/svg" xmlns:xlink="http://www.w3.org/1999/xlink" version="1.1" id="Capa_1" x="0px" y="0px" viewBox="0 0 488 488" style="enable-background:new 0 0 488 488;" xml:space="preserve" width="512px" height="512px" class=""><g><rect x="124" y="156" style="fill:#406363" width="64" height="64" data-original="#40C4FF" class="active-path" data-old_color="#3F6262"/><path style="fill:#263238;" d="M188,224h-64c-2.208,0-4-1.792-4-4v-64c0-2.208,1.792-4,4-4h64c2.208,0,4,1.792,4,4v64  C192,222.208,190.208,224,188,224z M128,216h56v-56h-56V216z" data-original="#263238" class=""/><rect x="228" y="124" style="fill:#FE4C02" width="64" height="64" data-original="#FFD740" class="" data-old_color="#fe4c02"/><path style="fill:#263238;" d="M292,192h-64c-2.208,0-4-1.792-4-4v-64c0-2.208,1.792-4,4-4h64c2.208,0,4,1.792,4,4v64  C296,190.208,294.208,192,292,192z M232,184h56v-56h-56V184z" data-original="#263238" class=""/><rect x="368" y="164" style="fill:#FE4C02" width="64" height="64" data-original="#FFD740" class="" data-old_color="#fe4c02"/><path style="fill:#263238;" d="M432,232h-64c-2.208,0-4-1.792-4-4v-64c0-2.208,1.792-4,4-4h64c2.208,0,4,1.792,4,4v64  C436,230.208,434.208,232,432,232z M372,224h56v-56h-56V224z" data-original="#263238" class=""/><rect x="236" y="340" style="fill:#FE4C02" width="64" height="64" data-original="#FFD740" class="" data-old_color="#fe4c02"/><g>
	<path style="fill:#263238;" d="M300,408h-64c-2.208,0-4-1.792-4-4v-64c0-2.208,1.792-4,4-4h64c2.208,0,4,1.792,4,4v64   C304,406.208,302.208,408,300,408z M240,400h56v-56h-56V400z" data-original="#263238" class=""/>
	<path style="fill:#263238;" d="M228,320h-64c-2.208,0-4-1.792-4-4v-64c0-2.208,1.792-4,4-4h64c2.208,0,4,1.792,4,4v64   C232,318.208,230.208,320,228,320z M168,312h56v-56h-56V312z" data-original="#263238" class=""/>
</g><rect x="268" y="220" style="fill:#5FBA62" width="64" height="64" data-original="#FF5252" class="" data-old_color="#5FBB62"/><path style="fill:#263238;" d="M332,288h-64c-2.208,0-4-1.792-4-4v-64c0-2.208,1.792-4,4-4h64c2.208,0,4,1.792,4,4v64  C336,286.208,334.208,288,332,288z M272,280h56v-56h-56V280z" data-original="#263238" class=""/><rect x="336" y="300" style="fill:#406363" width="64" height="64" data-original="#40C4FF" class="active-path" data-old_color="#3F6262"/><g>
	<path style="fill:#263238;" d="M400,368h-64c-2.208,0-4-1.792-4-4v-64c0-2.208,1.792-4,4-4h64c2.208,0,4,1.792,4,4v64   C404,366.208,402.208,368,400,368z M340,360h56v-56h-56V360z" data-original="#263238" class=""/>
	<path style="fill:#263238;" d="M64,421.504h-4c-13.232,0-24-10.768-24-24v-344c0-13.232,10.768-24,24-24h248   c13.232,0,24,10.768,24,24v4c0,2.208-1.792,4-4,4s-4-1.792-4-4v-4c0-8.824-7.176-16-16-16H60c-8.824,0-16,7.176-16,16v344   c0,8.824,7.176,16,16,16h4c2.208,0,4,1.792,4,4S66.208,421.504,64,421.504z" data-original="#263238" class=""/>
	<path style="fill:#263238;" d="M348,461.504H100c-13.232,0-24-10.768-24-24v-344c0-13.232,10.768-24,24-24h248   c13.232,0,24,10.768,24,24v56c0,2.208-1.792,4-4,4s-4-1.792-4-4v-56c0-8.824-7.176-16-16-16H100c-8.824,0-16,7.176-16,16v344   c0,8.824,7.176,16,16,16h248c8.824,0,16-7.176,16-16v-56c0-2.208,1.792-4,4-4s4,1.792,4,4v56   C372,450.736,361.232,461.504,348,461.504z" data-original="#263238" class=""/>
	<path style="fill:#263238;" d="M368,288c-2.208,0-4-1.792-4-4v-40c0-2.208,1.792-4,4-4s4,1.792,4,4v40   C372,286.208,370.208,288,368,288z" data-original="#263238" class=""/>
	<path style="fill:#263238;" d="M128,488h-16c-2.208,0-4-1.792-4-4s1.792-4,4-4h16c2.208,0,4,1.792,4,4S130.208,488,128,488z" data-original="#263238" class=""/>
	<path style="fill:#263238;" d="M304,488H144c-2.208,0-4-1.792-4-4s1.792-4,4-4h160c2.208,0,4,1.792,4,4S306.208,488,304,488z" data-original="#263238" class=""/>
	<path style="fill:#263238;" d="M392,24h-32c-2.208,0-4-1.792-4-4s1.792-4,4-4h32c2.208,0,4,1.792,4,4S394.208,24,392,24z" data-original="#263238" class=""/>
	<path style="fill:#263238;" d="M376,40c-2.208,0-4-1.792-4-4V4c0-2.208,1.792-4,4-4s4,1.792,4,4v32C380,38.208,378.208,40,376,40z" data-original="#263238" class=""/>
	<path style="fill:#263238;" d="M448,76h-32c-2.208,0-4-1.792-4-4s1.792-4,4-4h32c2.208,0,4,1.792,4,4S450.208,76,448,76z" data-original="#263238" class=""/>
	<path style="fill:#263238;" d="M432,92c-2.208,0-4-1.792-4-4V56c0-2.208,1.792-4,4-4s4,1.792,4,4v32C436,90.208,434.208,92,432,92z   " data-original="#263238" class=""/>
</g></g> </svg>
