<?xml version="1.0"?>
<svg xmlns="http://www.w3.org/2000/svg" xmlns:xlink="http://www.w3.org/1999/xlink" version="1.1" id="Layer_1" x="0px" y="0px" viewBox="0 0 504.15 504.15" style="enable-background:new 0 0 504.15 504.15;" xml:space="preserve" width="512px" height="512px" class=""><g><path style="fill:#FE4C02" d="M170.175,224.022h-80v-28.2c-19.848-13.304-32-35.808-32-59.8c0-39.704,32.296-72,72-72  s72,32.296,72,72c0,24-12.152,46.496-32,59.808V224.022z" data-original="#F9BA48" class="active-path" data-old_color="#fe4c02"/><g>
	<path style="fill:#333333" d="M178.175,252.022c0-2.52-0.52-4.904-1.368-7.12c5.608-3.544,9.368-9.76,9.368-16.88   c0-11.032-8.968-20-20-20h-28V158.55c9.288-3.312,16-12.112,16-22.528c0-13.232-10.768-24-24-24s-24,10.768-24,24   c0,10.416,6.712,19.216,16,22.528v49.472h-28c-11.032,0-20,8.968-20,20c0,7.12,3.76,13.328,9.368,16.88   c-0.848,2.224-1.368,4.608-1.368,7.12c0,6.456,3.12,12.136,7.872,15.8V434.15l40,70l40-70V268.022   C174.951,264.374,178.175,258.59,178.175,252.022z M130.175,128.022c4.416,0,8,3.584,8,8s-3.584,8-8,8c-4.416,0-8-3.584-8-8   S125.759,128.022,130.175,128.022z M154.047,424.022h-16v-152h16V424.022z M106.047,424.022v-152h16v152H106.047z M102.175,256.022   c-2.2,0-4-1.8-4-4s1.8-4,4-4h56c2.2,0,4,1.8,4,4s-1.8,4-4,4H102.175z M94.175,224.022h72c2.2,0,4,1.8,4,4s-1.8,4-4,4h-8h-56h-8   c-2.2,0-4-1.8-4-4S91.967,224.022,94.175,224.022z M111.831,440.022h36.432l-18.216,31.872L111.831,440.022z" data-original="#333333" class=""/>
	<path style="fill:#333333" d="M216.215,56.494c16.712,20.064,25.832,45.072,25.832,71.504c0,29.912-11.648,58.04-32.808,79.192   l11.312,11.312c24.184-24.176,37.496-56.312,37.496-90.504c0-29.208-9.792-56.88-28.032-79.72l14.744-2.952l-3.144-15.688   l-31.76,6.36L191.063,67.31l13.72,8.232L216.215,56.494z" data-original="#333333" class=""/>
	<path style="fill:#333333" d="M43.871,199.502c-16.704-20.064-25.824-45.072-25.824-71.504c0-29.92,11.648-58.04,32.808-79.192   c31.648-31.664,79.032-41.4,120.648-24.848l5.92-14.856c-47.608-18.936-101.704-7.784-137.88,28.4   C15.359,61.662,2.047,93.806,2.047,127.998c0,29.264,9.824,56.992,28,79.728l-14.712,2.936l3.144,15.688l31.76-6.352l18.792-31.32   l-13.72-8.232L43.871,199.502z" data-original="#333333" class=""/>
	<path style="fill:#333333" d="M447.743,212.19c3.368-21.88,2.808-43.68-1.68-64.832C427.879,61.726,352.335,0.174,265.911,0.174   c-0.776,0-1.552,0.008-2.328,0.016l0.2,16c79.832-1.024,149.848,55.544,166.616,134.496c4.264,20.064,4.632,40.808,1.104,61.64   l-0.472,2.784l46.688,83.496l-51.808,11.84v97.576h-80v72h-168v16h184v-72h80V323.19l60.192-13.752L447.743,212.19z" data-original="#333333" class=""/>
</g></g> </svg>
