<?xml version="1.0"?>
<svg xmlns="http://www.w3.org/2000/svg" xmlns:xlink="http://www.w3.org/1999/xlink" version="1.1" id="Capa_1" x="0px" y="0px" viewBox="0 0 512 512" style="enable-background:new 0 0 512 512;" xml:space="preserve" width="512px" height="512px" class=""><g transform="matrix(-1 0 0 1 512 0)"><g>
	<path style="fill:#F5D0C7;" d="M477.864,119.467v17.067c0,14.14-11.46,25.6-25.6,25.6h-8.533c-14.14,0-25.6-11.46-25.6-25.6v-25.6   c0-2.603,0.401-5.197,1.195-7.68l24.405,16.213H477.864z" data-original="#F5D0C7"/>
	<path style="fill:#F5D0C7;" d="M477.864,110.933v8.533H443.73l-24.405-16.213c3.319-10.684,13.218-17.954,24.405-17.92h8.533   C466.404,85.333,477.864,96.794,477.864,110.933z" data-original="#F5D0C7"/>
	<path style="fill:#F5D0C7;" d="M59.73,68.267h8.533c18.85,0,34.133,15.283,34.133,34.133V128c0,18.85-15.283,34.133-34.133,34.133   H59.73c-18.85,0-34.133-15.283-34.133-34.133v-25.6C25.597,83.55,40.88,68.267,59.73,68.267z" data-original="#F5D0C7"/>
</g><path style="fill:#FE4C02" d="M85.33,162.133H51.197c-18.85,0-34.133,15.283-34.133,34.133v93.867c0,4.71,3.823,8.533,8.533,8.533  H85.33c4.71,0,8.533-3.823,8.533-8.533V170.667C93.864,165.956,90.041,162.133,85.33,162.133z" data-original="#00448F" class="active-path" data-old_color="#fe4c02"/><g>
	<path style="fill:#263238" d="M42.664,512H8.53c-4.71,0-8.533-3.823-8.525-8.542c0-0.913,0.145-1.826,0.435-2.688l33.442-100.326   l-16.674-91.716l16.777-3.055l17.067,93.867c0.273,1.425,0.171,2.893-0.299,4.267l-30.379,91.127h22.289V512z" data-original="#002874" class="" data-old_color="#002874"/>
	<path style="fill:#263238" d="M102.397,512H68.264c-4.71,0-8.533-3.823-8.525-8.542c0-0.913,0.145-1.826,0.435-2.688   l33.442-100.326l-16.674-91.716l16.777-3.055l17.067,93.867c0.273,1.425,0.171,2.893-0.299,4.267l-30.379,91.127h22.289V512z" data-original="#002874" class="" data-old_color="#002874"/>
</g><path style="fill:#263238" d="M64.176,203.554l-8.892-14.575l79.599-48.58l64-61.235c0.35-0.35,0.742-0.657,1.152-0.93l25.6-17.067  l9.472,14.199L210.13,92.015l-64.145,61.355c-0.444,0.418-0.93,0.794-1.451,1.118L64.176,203.554z" data-original="#62BEFF" class="" data-old_color="#62BEFF"/><g>
	<path style="fill:#406363" d="M221.864,119.467c-13.568,0.017-26.59-5.35-36.207-14.925c-0.307-0.299-0.589-0.614-0.853-0.947   c-19.541-20.48-18.782-52.932,1.698-72.474s52.932-18.782,72.474,1.698s18.782,52.932-1.698,72.474   C247.737,114.398,235.048,119.475,221.864,119.467z M198.047,92.783c13.611,12.535,34.611,12.373,48.026-0.375   c13.355-13.346,13.372-34.987,0.026-48.341c-13.346-13.355-34.987-13.372-48.341-0.026c-6.434,6.417-10.044,15.138-10.027,24.226   c-0.051,8.943,3.447,17.536,9.737,23.893C197.646,92.314,197.851,92.553,198.047,92.783z" data-original="#FFCB5A" class="" data-old_color="#53636B"/>
	<rect x="213.33" y="110.933" style="fill:#406363" width="17.067" height="25.6" data-original="#FFCB5A" class="" data-old_color="#53636B"/>
	<rect x="213.33" style="fill:#406363" width="17.067" height="25.6" data-original="#FFCB5A" class="" data-old_color="#53636B"/>
	
		<rect x="252.575" y="94.724" transform="matrix(-0.7071 0.7071 -0.7071 -0.7071 521.7656 -1.091)" style="fill:#406363" width="17.067" height="25.583" data-original="#FFCB5A" class="" data-old_color="#53636B"/>
	
		<rect x="174.078" y="16.241" transform="matrix(-0.7071 0.7071 -0.7071 -0.7071 332.2656 -79.5647)" style="fill:#406363" width="17.067" height="25.583" data-original="#FFCB5A" class="" data-old_color="#53636B"/>
	<rect x="264.53" y="59.733" style="fill:#406363" width="25.6" height="17.067" data-original="#FFCB5A" class="" data-old_color="#53636B"/>
	<rect x="153.597" y="59.733" style="fill:#406363" width="25.6" height="17.067" data-original="#FFCB5A" class="" data-old_color="#53636B"/>
	
		<rect x="248.323" y="20.485" transform="matrix(-0.7071 0.7071 -0.7071 -0.7071 466.2695 -135.0984)" style="fill:#406363" width="25.583" height="17.067" data-original="#FFCB5A" class="" data-old_color="#53636B"/>
	
		<rect x="169.817" y="98.977" transform="matrix(-0.7071 0.7071 -0.7071 -0.7071 387.7521 54.4076)" style="fill:#406363" width="25.583" height="17.067" data-original="#FFCB5A" class="" data-old_color="#53636B"/>
</g><path style="fill:#F5D0C7;" d="M452.264,76.8h-8.533c-18.842,0.026-34.108,15.292-34.133,34.133v25.6  c0,18.85,15.283,34.133,34.133,34.133h8.533c18.85,0,34.133-15.283,34.133-34.133v-25.6C486.397,92.083,471.114,76.8,452.264,76.8z   M469.331,136.533c0,9.429-7.637,17.067-17.067,17.067h-8.533c-9.429,0-17.067-7.637-17.067-17.067v-25.6  c0-1.741,0.264-3.465,0.785-5.12v-0.077c2.219-7.108,8.832-11.93,16.282-11.87h8.533c9.429,0,17.067,7.637,17.067,17.067V136.533z" data-original="#F5D0C7"/><path style="fill:#FE4C02" d="M460.797,170.667h-34.133c-4.71,0-8.533,3.823-8.533,8.533v119.467c0,4.71,3.823,8.533,8.533,8.533  h59.733c4.71,0,8.533-3.823,8.533-8.533V204.8C494.931,185.95,479.647,170.667,460.797,170.667z" data-original="#00448F" class="active-path" data-old_color="#fe4c02"/><g>
	<path style="fill:#263238" d="M503.464,512h-34.133v-17.067h22.289l-30.379-91.17c-0.478-1.408-0.572-2.918-0.273-4.369   l17.067-85.333l16.725,3.345l-16.623,83.115l33.417,100.25c1.493,4.471-0.93,9.301-5.402,10.795   C505.281,511.855,504.377,512,503.464,512z" data-original="#002874" class="" data-old_color="#002874"/>
	<path style="fill:#263238" d="M443.73,512h-34.133v-17.067h22.289l-30.379-91.17c-0.478-1.408-0.572-2.918-0.273-4.369   l17.067-85.333l16.725,3.345l-16.623,83.115l33.417,100.25c1.493,4.471-0.93,9.301-5.402,10.795   C445.548,511.855,444.644,512,443.73,512z" data-original="#002874" class="" data-old_color="#002874"/>
</g><path style="fill:#263238" d="M383.997,281.6c-1.451,0-2.876-0.367-4.139-1.075l-74.871-41.591h-23.39v-17.067h25.6  c1.451,0,2.876,0.367,4.139,1.075l71.518,39.723l72.269-64.239l11.349,12.749l-76.8,68.267  C388.11,280.832,386.088,281.6,383.997,281.6z" data-original="#62BEFF" class="" data-old_color="#62BEFF"/><path style="fill:#406363" d="M290.13,221.867c-28.203-0.068-51.012-22.989-50.944-51.2c0.068-28.203,22.989-51.012,51.2-50.944  c28.203,0.068,51.012,22.989,50.944,51.2c-0.034,13.483-5.402,26.411-14.925,35.951C316.789,216.491,303.733,221.884,290.13,221.867  z M290.13,136.533c-18.773,0.077-33.937,15.351-33.86,34.133s15.351,33.937,34.133,33.86c18.782-0.077,33.937-15.351,33.86-34.133  c-0.034-8.986-3.627-17.596-9.993-23.936C307.846,140.092,299.167,136.525,290.13,136.533z" data-original="#FFCB5A" class="" data-old_color="#53636B"/><g>
	<path style="fill:#F5B05C" d="M384.526,210.321l-15.735-6.613c4.412-10.453,6.682-21.692,6.673-33.041h17.067   C392.548,184.286,389.825,197.769,384.526,210.321z" data-original="#F5B05C" class="" data-old_color="#FFF700"/>
	<path style="fill:#F5B05C" d="M363.295,126.78c-10.641-17.673-27.281-30.925-46.882-37.342l5.282-16.213   c23.492,7.689,43.443,23.569,56.201,44.74L363.295,126.78z" data-original="#F5B05C" class="" data-old_color="#FFF700"/>
	<path style="fill:#F5B05C" d="M209.422,233.6c-14.106-17.937-21.751-40.115-21.692-62.933h17.067   c-0.051,19.012,6.323,37.487,18.074,52.437L209.422,233.6z" data-original="#F5B05C" class="" data-old_color="#FFF700"/>
	<path style="fill:#F5B05C" d="M290.13,273.067c-8.559-0.009-17.092-1.067-25.395-3.157l4.19-16.555   c6.929,1.758,14.054,2.645,21.205,2.645V273.067z" data-original="#F5B05C" class="" data-old_color="#FFF700"/>
</g><g>
	<rect x="281.597" y="213.333" style="fill:#406363" width="17.067" height="25.6" data-original="#FFCB5A" class="" data-old_color="#53636B"/>
	<rect x="281.597" y="102.4" style="fill:#406363" width="17.067" height="25.6" data-original="#FFCB5A" class="" data-old_color="#53636B"/>
	
		<rect x="238.081" y="201.386" transform="matrix(-0.7071 0.7071 -0.7071 -0.7071 576.7007 180.9614)" style="fill:#406363" width="25.583" height="17.067" data-original="#FFCB5A" class="" data-old_color="#53636B"/>
	
		<rect x="316.581" y="122.889" transform="matrix(-0.7071 0.7071 -0.7071 -0.7071 655.2036 -8.5506)" style="fill:#406363" width="25.583" height="17.067" data-original="#FFCB5A" class="" data-old_color="#53636B"/>
	<rect x="221.864" y="162.133" style="fill:#406363" width="25.6" height="17.067" data-original="#FFCB5A" class="" data-old_color="#53636B"/>
	<rect x="332.797" y="162.133" style="fill:#406363" width="25.6" height="17.067" data-original="#FFCB5A" class="" data-old_color="#53636B"/>
	
		<rect x="242.345" y="118.619" transform="matrix(-0.7071 0.7071 -0.7071 -0.7071 521.1961 46.9334)" style="fill:#406363" width="17.067" height="25.583" data-original="#FFCB5A" class="" data-old_color="#53636B"/>
	
		<rect x="320.828" y="197.125" transform="matrix(-0.7071 0.7071 -0.7071 -0.7071 710.6876 125.4568)" style="fill:#406363" width="17.067" height="25.583" data-original="#FFCB5A" class="" data-old_color="#53636B"/>
</g></g> </svg>
