<?xml version="1.0"?>
<svg xmlns="http://www.w3.org/2000/svg" xmlns:xlink="http://www.w3.org/1999/xlink" version="1.1" id="Capa_1" x="0px" y="0px" viewBox="0 0 512 512" style="enable-background:new 0 0 512 512;" xml:space="preserve" width="512px" height="512px" class=""><g><g>
	<rect x="87.43" y="21.315" style="fill:#FE4C02" width="35.67" height="70.96" data-original="#409DE6" class="" data-old_color="#fe4c02"/>
	<rect x="162.8" y="21.315" style="fill:#FE4C02" width="35.67" height="70.96" data-original="#409DE6" class="" data-old_color="#fe4c02"/>
	<rect x="238.16" y="21.315" style="fill:#FE4C02" width="35.67" height="70.96" data-original="#409DE6" class="" data-old_color="#fe4c02"/>
	<rect x="313.53" y="21.315" style="fill:#FE4C02" width="35.67" height="70.96" data-original="#409DE6" class="" data-old_color="#fe4c02"/>
	<rect x="388.9" y="21.315" style="fill:#FE4C02" width="35.67" height="70.96" data-original="#409DE6" class="" data-old_color="#fe4c02"/>
	<rect x="87.43" y="419.731" style="fill:#FE4C02" width="35.67" height="70.96" data-original="#409DE6" class="" data-old_color="#fe4c02"/>
	<rect x="162.8" y="419.731" style="fill:#FE4C02" width="35.67" height="70.96" data-original="#409DE6" class="" data-old_color="#fe4c02"/>
	<rect x="238.16" y="419.731" style="fill:#FE4C02" width="35.67" height="70.96" data-original="#409DE6" class="" data-old_color="#fe4c02"/>
	<rect x="313.53" y="419.731" style="fill:#FE4C02" width="35.67" height="70.96" data-original="#409DE6" class="" data-old_color="#fe4c02"/>
	<rect x="388.9" y="419.731" style="fill:#FE4C02" width="35.67" height="70.96" data-original="#409DE6" class="" data-old_color="#fe4c02"/>
	<rect x="419.73" y="87.431" style="fill:#FE4C02" width="70.96" height="35.67" data-original="#409DE6" class="" data-old_color="#fe4c02"/>
	<rect x="419.73" y="162.801" style="fill:#FE4C02" width="70.96" height="35.67" data-original="#409DE6" class="" data-old_color="#fe4c02"/>
	<rect x="419.73" y="238.171" style="fill:#FE4C02" width="70.96" height="35.67" data-original="#409DE6" class="" data-old_color="#fe4c02"/>
	<rect x="419.73" y="313.531" style="fill:#FE4C02" width="70.96" height="35.67" data-original="#409DE6" class="" data-old_color="#fe4c02"/>
	<rect x="419.73" y="388.901" style="fill:#FE4C02" width="70.96" height="35.67" data-original="#409DE6" class="" data-old_color="#fe4c02"/>
	<rect x="21.314" y="87.431" style="fill:#FE4C02" width="70.96" height="35.67" data-original="#409DE6" class="" data-old_color="#fe4c02"/>
	<rect x="21.314" y="162.801" style="fill:#FE4C02" width="70.96" height="35.67" data-original="#409DE6" class="" data-old_color="#fe4c02"/>
	<rect x="21.314" y="238.171" style="fill:#FE4C02" width="70.96" height="35.67" data-original="#409DE6" class="" data-old_color="#fe4c02"/>
	<rect x="21.314" y="313.531" style="fill:#FE4C02" width="70.96" height="35.67" data-original="#409DE6" class="" data-old_color="#fe4c02"/>
	<rect x="21.314" y="388.901" style="fill:#FE4C02" width="70.96" height="35.67" data-original="#409DE6" class="" data-old_color="#fe4c02"/>
</g><rect x="60.35" y="60.351" style="fill:#C7C5CC" width="391.29" height="391.29" data-original="#C7C5CC" class=""/><rect x="102.45" y="102.451" style="fill:#406363" width="307.1" height="307.1" data-original="#44E6A3" class="" data-old_color="#44E6A3"/><rect x="385.5" y="102.451" style="fill:#427777" width="24.05" height="307.1" data-original="#34AD7B" class="active-path" data-old_color="#427676"/><rect x="150.55" y="140.071" style="fill:#F9C985" width="53.41" height="109.74" data-original="#F9C985" class="" data-old_color="#825A2E"/><rect x="185.29" y="140.071" style="fill:#FCB641" width="18.667" height="109.74" data-original="#FCB641" class="" data-old_color="#FCB641"/><rect x="150.55" y="279.161" style="fill:#F9C985" width="53.41" height="45.88" data-original="#F9C985" class="" data-old_color="#825A2E"/><rect x="185.29" y="279.161" style="fill:#FCB641" width="18.667" height="45.88" data-original="#FCB641" class="" data-old_color="#FCB641"/><g>
	<circle style="fill:#FE4C02" cx="353.91" cy="146.26" r="15.22" data-original="#409DE6" class="" data-old_color="#fe4c02"/>
	<circle style="fill:#FE4C02" cx="353.91" cy="201.131" r="15.22" data-original="#409DE6" class="" data-old_color="#fe4c02"/>
	<circle style="fill:#FE4C02" cx="353.91" cy="256" r="15.22" data-original="#409DE6" class="" data-old_color="#fe4c02"/>
	<circle style="fill:#FE4C02" cx="353.91" cy="310.87" r="15.22" data-original="#409DE6" class="" data-old_color="#fe4c02"/>
	<circle style="fill:#FE4C02" cx="353.91" cy="365.74" r="15.22" data-original="#409DE6" class="" data-old_color="#fe4c02"/>
</g><path d="M490.69,205.967c4.143,0,7.5-3.357,7.5-7.5v-10.331h6.31c4.143,0,7.5-3.357,7.5-7.5s-3.357-7.5-7.5-7.5h-6.31v-10.34  c0-4.143-3.357-7.5-7.5-7.5h-31.543v-24.689h31.543c4.143,0,7.5-3.357,7.5-7.5v-10.336h6.31c4.143,0,7.5-3.357,7.5-7.5  s-3.357-7.5-7.5-7.5h-6.31V87.437c0-4.143-3.357-7.5-7.5-7.5h-31.543V60.355c0-4.143-3.357-7.5-7.5-7.5H432.07V21.316  c0-4.143-3.357-7.5-7.5-7.5h-10.339V7.501c0-4.143-3.357-7.5-7.5-7.5s-7.5,3.357-7.5,7.5v6.315H388.9c-4.143,0-7.5,3.357-7.5,7.5  v31.538h-24.7V21.316c0-4.143-3.357-7.5-7.5-7.5h-10.335V7.501c0-4.143-3.357-7.5-7.5-7.5s-7.5,3.357-7.5,7.5v6.315H313.53  c-4.143,0-7.5,3.357-7.5,7.5v31.538h-24.7V21.316c0-4.143-3.357-7.5-7.5-7.5H263.5V7.501c0-4.143-3.357-7.5-7.5-7.5  s-7.5,3.357-7.5,7.5v6.315h-10.33c-4.143,0-7.5,3.357-7.5,7.5v31.538h-24.7V21.316c0-4.143-3.357-7.5-7.5-7.5h-10.335V7.501  c0-4.143-3.357-7.5-7.5-7.5s-7.5,3.357-7.5,7.5v6.315H162.8c-4.143,0-7.5,3.357-7.5,7.5v31.538h-24.7V21.316  c0-4.143-3.357-7.5-7.5-7.5h-10.331V7.501c0-4.143-3.357-7.5-7.5-7.5s-7.5,3.357-7.5,7.5v6.315H87.43c-4.143,0-7.5,3.357-7.5,7.5  v31.538H60.353c-4.143,0-7.5,3.357-7.5,7.5v19.582H21.31c-4.143,0-7.5,3.357-7.5,7.5v10.335H7.5c-4.143,0-7.5,3.357-7.5,7.5  s3.357,7.5,7.5,7.5h6.31v10.336c0,4.143,3.357,7.5,7.5,7.5h31.543v24.689H21.31c-4.143,0-7.5,3.357-7.5,7.5v10.34H7.5  c-4.143,0-7.5,3.357-7.5,7.5s3.357,7.5,7.5,7.5h6.31v10.331c0,4.143,3.357,7.5,7.5,7.5h31.543v24.699H21.31  c-4.143,0-7.5,3.357-7.5,7.5v10.335H7.5c-4.143,0-7.5,3.357-7.5,7.5c0,4.143,3.357,7.5,7.5,7.5h6.31v10.335  c0,4.143,3.357,7.5,7.5,7.5h31.543v24.7H21.31c-4.143,0-7.5,3.357-7.5,7.5v10.331H7.5c-4.143,0-7.5,3.357-7.5,7.5s3.357,7.5,7.5,7.5  h6.31v10.339c0,4.143,3.357,7.5,7.5,7.5h31.543v24.69H21.31c-4.143,0-7.5,3.357-7.5,7.5v10.336H7.5c-4.143,0-7.5,3.357-7.5,7.5  s3.357,7.5,7.5,7.5h6.31v10.334c0,4.143,3.357,7.5,7.5,7.5h31.543v19.582c0,4.143,3.357,7.5,7.5,7.5H79.93v31.538  c0,4.143,3.357,7.5,7.5,7.5h10.339v6.314c0,4.143,3.357,7.5,7.5,7.5s7.5-3.357,7.5-7.5v-6.314H123.1c4.143,0,7.5-3.357,7.5-7.5  v-31.538h24.7v31.538c0,4.143,3.357,7.5,7.5,7.5h10.335v6.314c0,4.143,3.357,7.5,7.5,7.5s7.5-3.357,7.5-7.5v-6.314h10.335  c4.143,0,7.5-3.357,7.5-7.5v-31.538h24.7v31.538c0,4.143,3.357,7.5,7.5,7.5h10.33v6.314c0,4.143,3.357,7.5,7.5,7.5  c4.143,0,7.5-3.357,7.5-7.5v-6.314h10.33c4.143,0,7.5-3.357,7.5-7.5v-31.538h24.7v31.538c0,4.143,3.357,7.5,7.5,7.5h10.335v6.314  c0,4.143,3.357,7.5,7.5,7.5s7.5-3.357,7.5-7.5v-6.314H349.2c4.143,0,7.5-3.357,7.5-7.5v-31.538h24.7v31.538  c0,4.143,3.357,7.5,7.5,7.5h10.331v6.314c0,4.143,3.357,7.5,7.5,7.5s7.5-3.357,7.5-7.5v-6.314h10.339c4.143,0,7.5-3.357,7.5-7.5  v-31.538h19.577c4.143,0,7.5-3.357,7.5-7.5v-19.582h31.543c4.143,0,7.5-3.357,7.5-7.5v-10.334h6.31c4.143,0,7.5-3.357,7.5-7.5  s-3.357-7.5-7.5-7.5h-6.31v-10.336c0-4.143-3.357-7.5-7.5-7.5h-31.543v-24.69h31.543c4.143,0,7.5-3.357,7.5-7.5v-10.339h6.31  c4.143,0,7.5-3.357,7.5-7.5s-3.357-7.5-7.5-7.5h-6.31v-10.331c0-4.143-3.357-7.5-7.5-7.5h-31.543v-24.7h31.543  c4.143,0,7.5-3.357,7.5-7.5V263.5h6.31c4.143,0,7.5-3.357,7.5-7.5c0-4.143-3.357-7.5-7.5-7.5h-6.31v-10.335  c0-4.143-3.357-7.5-7.5-7.5h-31.543v-24.699L490.69,205.967L490.69,205.967z M483.19,170.296v20.671h-24.043v-20.671H483.19z   M483.19,94.937v20.67h-24.043v-20.67H483.19z M396.4,28.816h20.67v24.038H396.4V28.816z M321.03,28.816h20.67v24.038h-20.67V28.816  z M245.67,28.816h20.66v24.038h-20.66L245.67,28.816L245.67,28.816z M170.3,28.816h20.67v24.038H170.3V28.816z M94.93,28.816h20.67  v24.038H94.93V28.816z M28.81,115.606v-20.67h24.043v20.67H28.81z M28.81,190.967v-20.671h24.043v20.671H28.81z M28.81,266.336  v-20.67h24.043v20.67H28.81z M28.81,341.706v-20.67h24.043v20.67H28.81z M28.81,417.065v-20.67h24.043v20.67H28.81z M115.6,483.187  H94.93v-24.038h20.67V483.187z M190.97,483.187H170.3v-24.038h20.67V483.187z M266.33,483.187h-20.66v-24.038h20.66V483.187z   M341.7,483.187h-20.67v-24.038h20.67V483.187z M417.07,483.187H396.4v-24.038h20.67V483.187z M444.147,444.148H67.853V67.854  h376.295v376.293H444.147z M483.19,396.396v20.67h-24.043v-20.67H483.19z M483.19,321.036v20.67h-24.043v-20.67H483.19z   M483.19,245.665v20.67h-24.043v-20.67H483.19z" data-original="#000000" class="" style="fill:#000000"/><path d="M102.451,417.049h307.098c4.143,0,7.5-3.357,7.5-7.5v-48.024c0-4.143-3.357-7.5-7.5-7.5s-7.5,3.357-7.5,7.5v40.524H109.951  V230.57c0-4.143-3.357-7.5-7.5-7.5s-7.5,3.357-7.5,7.5v178.979C94.951,413.692,98.309,417.049,102.451,417.049z" data-original="#000000" class="" style="fill:#000000"/><path d="M102.451,208.639c4.143,0,7.5-3.357,7.5-7.5v-91.186h292.098v221.414c0,4.143,3.357,7.5,7.5,7.5s7.5-3.357,7.5-7.5V102.453  c0-4.143-3.357-7.5-7.5-7.5H102.451c-4.143,0-7.5,3.357-7.5,7.5v98.686C94.951,205.281,98.309,208.639,102.451,208.639z" data-original="#000000" class="" style="fill:#000000"/><path d="M332.468,153.764c3.106,8.853,11.542,15.221,21.443,15.221c12.528,0,22.721-10.192,22.721-22.721  s-10.192-22.721-22.721-22.721c-9.901,0-18.337,6.368-21.443,15.221h-24.994c-4.143,0-7.5,3.357-7.5,7.5V358.24H184.757v-25.699  h19.203c4.143,0,7.5-3.357,7.5-7.5v-15.44h59.247c4.143,0,7.5-3.357,7.5-7.5V159.023c0-4.143-3.357-7.5-7.5-7.5H211.46v-11.455  c0-4.143-3.357-7.5-7.5-7.5h-53.406c-4.143,0-7.5,3.357-7.5,7.5v14.957c0,4.143,3.357,7.5,7.5,7.5s7.5-3.357,7.5-7.5v-7.457h38.406  v94.738h-38.406v-59.283c0-4.143-3.357-7.5-7.5-7.5s-7.5,3.357-7.5,7.5v66.783c0,4.143,3.357,7.5,7.5,7.5h53.406  c4.143,0,7.5-3.357,7.5-7.5v-83.283h5.929v128.075h-5.929V279.16c0-4.143-3.357-7.5-7.5-7.5h-53.406c-4.143,0-7.5,3.357-7.5,7.5  v45.88c0,4.143,3.357,7.5,7.5,7.5h19.203v33.199c0,4.143,3.357,7.5,7.5,7.5h130.218h24.994c3.106,8.852,11.542,15.22,21.443,15.22  c12.528,0,22.721-10.192,22.721-22.72s-10.192-22.721-22.721-22.721c-9.901,0-18.337,6.368-21.443,15.221h-17.494V318.37h17.494  c3.106,8.853,11.542,15.221,21.443,15.221c12.528,0,22.721-10.192,22.721-22.721c0-12.529-10.192-22.721-22.721-22.721  c-9.901,0-18.337,6.368-21.443,15.221h-17.494v-39.868h17.494c3.106,8.853,11.542,15.22,21.443,15.22  c12.528,0,22.721-10.192,22.721-22.721c0-12.527-10.192-22.72-22.721-22.72c-9.901,0-18.337,6.368-21.443,15.221h-17.493v-39.869  h17.494c3.106,8.852,11.542,15.22,21.443,15.22c12.528,0,22.721-10.192,22.721-22.72s-10.192-22.721-22.721-22.721  c-9.901,0-18.337,6.368-21.443,15.221h-17.494v-39.869H332.468z M353.911,138.543c4.257,0,7.721,3.464,7.721,7.721  s-3.464,7.721-7.721,7.721s-7.721-3.464-7.721-7.721S349.654,138.543,353.911,138.543z M263.207,294.599h-7.626V166.523h7.626  V294.599z M232.389,166.523h8.192v128.075h-8.192V166.523z M158.054,286.659h38.406v30.88h-38.406L158.054,286.659L158.054,286.659z   M353.911,303.148c4.257,0,7.721,3.464,7.721,7.721s-3.464,7.721-7.721,7.721s-7.721-3.464-7.721-7.721  S349.654,303.148,353.911,303.148z M353.911,248.281c4.257,0,7.721,3.463,7.721,7.72c0,4.257-3.464,7.721-7.721,7.721  s-7.721-3.464-7.721-7.721C346.19,251.743,349.654,248.281,353.911,248.281z M353.911,193.411c4.257,0,7.721,3.464,7.721,7.721  s-3.464,7.72-7.721,7.72s-7.721-3.463-7.721-7.72S349.654,193.411,353.911,193.411z M353.911,358.018  c4.257,0,7.721,3.464,7.721,7.721s-3.464,7.72-7.721,7.72s-7.721-3.463-7.721-7.72C346.19,361.483,349.654,358.018,353.911,358.018z  " data-original="#000000" class="" style="fill:#000000"/></g> </svg>
